<!DOCTYPE svg PUBLIC "-//W3C//DTD SVG 1.1//EN" "http://www.w3.org/Graphics/SVG/1.1/DTD/svg11.dtd">
<!-- Uploaded to: SVG Repo, www.svgrepo.com, Transformed by: SVG Repo Mixer Tools -->
<svg width="228px" height="228px" viewBox="-3.2 -3.2 38.40 38.40" id="OBJECT" xmlns="http://www.w3.org/2000/svg" fill="#e67214" stroke="#e67214" stroke-width="0.8960000000000001">
<g id="SVGRepo_bgCarrier" stroke-width="0"/>
<g id="SVGRepo_tracerCarrier" stroke-linecap="round" stroke-linejoin="round" stroke="#000000" stroke-width="2.304">
<defs>
<style>.cls-1{fill:#000000;}</style>
</defs>
<title/>
<rect class="cls-1" height="30" rx="3" ry="3" width="30" x="1" y="1"/>
<path d="M31,7V4a3,3,0,0,0-3-3H4A3,3,0,0,0,1,4V7Z"/>
<path class="cls-1" d="M26,5h-.5a1,1,0,0,1,0-2H26a1,1,0,0,1,0,2Z"/>
<path class="cls-1" d="M22,5h-.5a1,1,0,0,1,0-2H22a1,1,0,0,1,0,2Z"/>
<path d="M10,24a1,1,0,0,1-.71-.29l-4-4a1,1,0,0,1,0-1.42l4-4a1,1,0,0,1,1.42,1.42L7.41,19l3.3,3.29a1,1,0,0,1,0,1.42A1,1,0,0,1,10,24Z"/>
<path d="M22,24a1,1,0,0,1-.71-.29,1,1,0,0,1,0-1.42L24.59,19l-3.3-3.29a1,1,0,0,1,1.42-1.42l4,4a1,1,0,0,1,0,1.42l-4,4A1,1,0,0,1,22,24Z"/>
<path d="M14,26a1.25,1.25,0,0,1-.32-.05,1,1,0,0,1-.63-1.27l4-12a1,1,0,1,1,1.9.64l-4,12A1,1,0,0,1,14,26Z"/>
</g>
<g id="SVGRepo_iconCarrier">
<defs>
<style>.cls-1{fill:#000000;}</style>
</defs>
<title/>
<rect class="cls-1" height="30" rx="3" ry="3" width="30" x="1" y="1"/>
<path d="M31,7V4a3,3,0,0,0-3-3H4A3,3,0,0,0,1,4V7Z"/>
<path class="cls-1" d="M26,5h-.5a1,1,0,0,1,0-2H26a1,1,0,0,1,0,2Z"/>
<path class="cls-1" d="M22,5h-.5a1,1,0,0,1,0-2H22a1,1,0,0,1,0,2Z"/>
<path d="M10,24a1,1,0,0,1-.71-.29l-4-4a1,1,0,0,1,0-1.42l4-4a1,1,0,0,1,1.42,1.42L7.41,19l3.3,3.29a1,1,0,0,1,0,1.42A1,1,0,0,1,10,24Z"/>
<path d="M22,24a1,1,0,0,1-.71-.29,1,1,0,0,1,0-1.42L24.59,19l-3.3-3.29a1,1,0,0,1,1.42-1.42l4,4a1,1,0,0,1,0,1.42l-4,4A1,1,0,0,1,22,24Z"/>
<path d="M14,26a1.25,1.25,0,0,1-.32-.05,1,1,0,0,1-.63-1.27l4-12a1,1,0,1,1,1.9.64l-4,12A1,1,0,0,1,14,26Z"/>
</g>
</svg>