<?xml version="1.0" encoding="UTF-8"?>
<svg version="1.1" xmlns="http://www.w3.org/2000/svg" width="500" height="500">
<path d="M0 0 C165 0 330 0 500 0 C500 165 500 330 500 500 C335 500 170 500 0 500 C0 335 0 170 0 0 Z " fill="#F6DE1E" transform="translate(0,0)"/>
<path d="M0 0 C1.18206024 0.00638992 1.18206024 0.00638992 2.38800049 0.01290894 C14.27039602 0.102231 25.07177445 0.85596525 36.125 5.5625 C36.75438477 5.82482422 37.38376953 6.08714844 38.03222656 6.35742188 C56.11598033 14.05617156 68.19197896 26.85554155 76.125 44.5625 C78.49921919 51.59686016 78.125 58.03304511 78.125 65.5625 C63.935 65.5625 49.745 65.5625 35.125 65.5625 C34.135 61.2725 33.145 56.9825 32.125 52.5625 C27.42172979 45.09861467 22.32627103 40.2295809 13.88671875 37.328125 C8.76342079 36.28537692 3.78093255 36.11742211 -1.4375 36.0625 C-2.40671387 36.04413086 -3.37592773 36.02576172 -4.37451172 36.00683594 C-13.59935002 36.0850523 -21.69044358 38.55705002 -28.46875 45.015625 C-33.06699263 50.07369189 -33.41911745 54.99162396 -33.21484375 61.59375 C-32.52009253 67.66284116 -30.25503292 71.72989098 -25.5625 75.625 C-15.41630901 82.38465262 -3.7894915 86.4957926 7.73425293 90.21954346 C26.0643807 96.17991535 44.43202241 102.65618849 59.125 115.5625 C59.87910156 116.21863281 60.63320313 116.87476563 61.41015625 117.55078125 C71.95367662 127.38483109 78.42875871 141.69136406 79.34765625 156.0390625 C79.70736079 171.39688256 76.00954877 185.03942273 65.875 196.875 C49.58947912 213.78169332 28.56421642 218.54786971 5.86645508 219.01391602 C-19.48792987 219.37131241 -44.62127486 215.51668419 -63.875 197.5625 C-64.65230469 196.87542969 -65.42960937 196.18835938 -66.23046875 195.48046875 C-76.14804815 186.2606085 -80.84643264 175.60487879 -83.875 162.5625 C-84.17277344 161.36947266 -84.17277344 161.36947266 -84.4765625 160.15234375 C-85.01369622 156.66097456 -84.875 153.09494553 -84.875 149.5625 C-70.355 149.5625 -55.835 149.5625 -40.875 149.5625 C-40.215 153.5225 -39.555 157.4825 -38.875 161.5625 C-34.85869694 171.43113036 -30.11380248 176.49144314 -20.37890625 180.703125 C-13.67212747 183.00498355 -7.67889429 183.9252363 -0.625 183.875 C0.62180542 183.86654053 0.62180542 183.86654053 1.89379883 183.85791016 C12.28459048 183.65426798 21.539996 182.18397037 29.125 174.5625 C33.9711533 168.98942371 33.98114123 162.57263667 33.625 155.453125 C32.76594658 148.7686156 30.24665128 145.03308062 25.02734375 140.90234375 C15.13906359 134.44772348 3.34223334 130.95510603 -7.75 127.125 C-26.26443873 120.7194723 -45.10116179 113.85085173 -59.875 100.5625 C-60.50792969 100.01078125 -61.14085937 99.4590625 -61.79296875 98.890625 C-71.55017976 89.8442042 -77.50645146 77.94025635 -78.21875 64.640625 C-78.46967869 55.96739637 -78.47073555 47.60520645 -74.875 39.5625 C-74.56949219 38.77359375 -74.26398438 37.9846875 -73.94921875 37.171875 C-67.49932356 22.25502649 -54.45781119 13.26893361 -40.0625 6.8125 C-26.65629505 1.70493209 -14.22828912 -0.16527032 0 0 Z " fill="#010100" transform="translate(387.875,233.4375)"/>
<path d="M0 0 C14.85 0 29.7 0 45 0 C45.06797315 19.22943055 45.12312995 38.45876237 45.15543652 57.68828297 C45.17084213 66.61881148 45.19180954 75.54925951 45.22631836 84.47973633 C45.25641543 92.27228327 45.27562069 100.06477187 45.28226548 107.85737532 C45.28614371 111.97557063 45.29512291 116.09359916 45.31719017 120.21174049 C45.46756263 149.44243611 45.4807317 175.98953269 24.4765625 198.64453125 C10.22075624 212.20328704 -11.0781401 217.71201172 -30.33691406 217.46801758 C-50.34387234 216.73591509 -69.12438937 211.40287597 -83.44140625 196.8515625 C-90.39995792 189.0962301 -94.26385487 180.99586688 -97 171 C-97.22558594 170.21753906 -97.45117188 169.43507813 -97.68359375 168.62890625 C-99.28507556 162.43282835 -99 157.77098531 -99 151 C-84.48 151 -69.96 151 -55 151 C-54.34 154.96 -53.68 158.92 -53 163 C-51.53599335 166.61822677 -51.53599335 166.61822677 -49.90234375 170.16015625 C-49 172 -49 172 -48 175 C-46.30230766 176.10168984 -46.30230766 176.10168984 -44 177 C-42.98035156 177.50660156 -41.96070313 178.01320313 -40.91015625 178.53515625 C-36.62659673 180.3638038 -32.6705825 180.48027545 -28.0625 180.4375 C-27.30259766 180.45748047 -26.54269531 180.47746094 -25.75976562 180.49804688 C-19.17281221 180.49242181 -14.17979532 178.55655543 -9.046875 174.4296875 C-1.1486467 164.96132948 -0.40992743 155.17218973 -0.45410156 143.26904297 C-0.44535259 141.70107505 -0.43486222 140.13311603 -0.42277527 138.56517029 C-0.39505649 134.33648659 -0.39150744 130.10809625 -0.39249516 125.87933493 C-0.38935384 121.44969299 -0.36371038 117.02018083 -0.34051514 112.59060669 C-0.30004463 104.21506511 -0.27963553 95.83960122 -0.26654124 87.46397698 C-0.2506408 77.92334928 -0.21221241 68.38285321 -0.17194796 58.84230208 C-0.08967147 39.22821954 -0.03847617 19.61422074 0 0 Z " fill="#030300" transform="translate(230,236)"/>
<path d="M0 0 C1.76171875 1.1171875 1.76171875 1.1171875 3.625 2.5625 C4.45644531 3.18382813 5.28789062 3.80515625 6.14453125 4.4453125 C15.257075 11.89011399 19.29986657 20.98598711 20.625 32.5625 C21.7567684 45.11300314 17.99487971 58.03828024 10.125 67.9375 C4.00821105 74.36012839 -1.68517812 76.74183251 -10.52832031 76.9934082 C-20.18585742 77.02289186 -26.55958437 75.52184174 -34.1875 69.25 C-41.375 60.41964286 -41.375 60.41964286 -41.375 56.5625 C-42.035 56.5625 -42.695 56.5625 -43.375 56.5625 C-43.375 71.4125 -43.375 86.2625 -43.375 101.5625 C-44.035 101.5625 -44.695 101.5625 -45.375 101.5625 C-45.375 68.2325 -45.375 34.9025 -45.375 0.5625 C-44.715 0.5625 -44.055 0.5625 -43.375 0.5625 C-43.375 7.1625 -43.375 13.7625 -43.375 20.5625 C-42.715 20.5625 -42.055 20.5625 -41.375 20.5625 C-41.25125 20.005625 -41.1275 19.44875 -41 18.875 C-38.86277724 10.96727579 -34.31786538 6.31333631 -27.6875 1.6875 C-19.69923228 -2.1986843 -8.45290323 -3.80120289 0 0 Z " fill="#F4DC1F" transform="translate(208.375,70.4375)"/>
<path d="M0 0 C8.39000192 4.80559409 13.99933097 11.23487735 16.5625 20.5625 C17.1503125 22.233125 17.1503125 22.233125 17.75 23.9375 C18.5625 27.5625 18.5625 27.5625 18.5625 37.5625 C-2.2275 37.5625 -23.0175 37.5625 -44.4375 37.5625 C-43.43498756 49.59264929 -41.85938849 60.28894155 -32.4375 68.5625 C-26.86448939 72.24126695 -21.78997538 73.2782118 -15.1875 73.1875 C-14.35847168 73.17984619 -13.52944336 73.17219238 -12.67529297 73.16430664 C-4.53291171 72.87220683 2.23909752 70.65678208 8.2578125 64.95703125 C11.80613061 60.48445064 13.64628226 54.88294814 15.5625 49.5625 C15.8925 49.5625 16.2225 49.5625 16.5625 49.5625 C15.83776878 57.96938215 13.42733285 63.28849276 7.5625 69.5625 C0.8280439 74.95006488 -6.52520864 75.93960922 -14.875 75.875 C-15.61782227 75.87081055 -16.36064453 75.86662109 -17.12597656 75.86230469 C-24.95378131 75.70115409 -31.78935814 74.36329434 -37.4375 68.5625 C-46.40198106 57.74410793 -48.91045237 44.56069375 -47.75537109 30.84228516 C-46.39573059 21.09088497 -42.21715973 10.83788959 -34.4375 4.5625 C-23.8185326 -2.77041499 -12.13414005 -5.60275344 0 0 Z " fill="#F4DC1F" transform="translate(323.4375,71.4375)"/>
<path d="M0 0 C23.1 0 46.2 0 70 0 C70 0.66 70 1.32 70 2 C47.89 2.33 25.78 2.66 3 3 C2.67 18.18 2.34 33.36 2 49 C23.12 49 44.24 49 66 49 C66 49.99 66 50.98 66 52 C45.21 52 24.42 52 3 52 C3 68.83 3 85.66 3 103 C15.04442758 103.17114677 15.04442758 103.17114677 27.08789062 103.23046875 C32.00667544 103.22993955 36.92300206 103.24203092 41.84106445 103.33251953 C45.81028184 103.4047217 49.77580743 103.41760748 53.74554634 103.39070892 C55.25381518 103.39065345 56.76224306 103.41137905 58.26991081 103.4539566 C67.27102295 103.72906656 67.27102295 103.72906656 74.87425232 99.38189697 C77.24066212 96.4483585 79.11176786 93.2586829 81 90 C82.06983963 88.58786322 83.16100753 87.19097163 84.29296875 85.828125 C84.77540039 85.23008057 85.25783203 84.63203613 85.75488281 84.01586914 C86.22764648 83.43313232 86.70041016 82.85039551 87.1875 82.25 C91.22720728 77.23755685 95.18761827 72.18907513 99 67 C97.62035739 64.05920452 96.02496076 61.51941632 94.09375 58.91015625 C93.51898926 58.1313208 92.94422852 57.35248535 92.35205078 56.55004883 C91.74087402 55.72915771 91.12969727 54.9082666 90.5 54.0625 C89.87722168 53.22162842 89.25444336 52.38075684 88.61279297 51.5144043 C83.48874972 44.6137191 78.28273036 37.7799097 73 31 C73.99 30.67 74.98 30.34 76 30 C82.40041487 38.28446184 88.73575487 46.61187748 95 55 C96.18710834 56.583627 97.37455492 58.16700058 98.5625 59.75 C99.375 60.83333333 100.1875 61.91666667 101 63 C104.89972113 59.37410916 107.99109148 55.23459826 111.1875 51 C112.04154419 49.87573608 112.04154419 49.87573608 112.9128418 48.72875977 C117.63481227 42.5056424 122.33031745 36.26244249 127 30 C127.99 30.33 128.98 30.66 130 31 C129.63874023 31.46148437 129.27748047 31.92296875 128.90527344 32.3984375 C125.90024552 36.24062102 122.90517725 40.09013648 119.921875 43.94921875 C117.41982186 47.18465367 114.88921384 50.39318367 112.328125 53.58203125 C111.21826304 54.99180427 110.10886554 56.40194311 109 57.8125 C108.46600586 58.46283203 107.93201172 59.11316406 107.38183594 59.78320312 C105.73795351 61.81467744 105.73795351 61.81467744 104 65 C104.68813661 69.0629979 107.16995925 71.67112135 109.8125 74.75 C114.54861892 80.39336248 119.02670531 86.20624245 123.48168945 92.07324219 C124.00980225 92.76836914 124.53791504 93.46349609 125.08203125 94.1796875 C125.5817041 94.83936523 126.08137695 95.49904297 126.59619141 96.17871094 C127.82554518 97.77366384 129.10251626 99.33168085 130.38671875 100.8828125 C132 103 132 103 132 105 C128.50946085 103.56008715 126.84982866 101.8522828 124.64453125 98.81640625 C124.02610352 97.97585693 123.40767578 97.13530762 122.77050781 96.26928711 C122.12436523 95.37604736 121.47822266 94.48280762 120.8125 93.5625 C119.47181491 91.74088877 118.12937552 89.92056733 116.78515625 88.1015625 C115.81280029 86.78333496 115.81280029 86.78333496 114.82080078 85.43847656 C110.54425498 79.71118513 106.1489694 73.97415871 101 69 C95.88702447 75.31976479 90.86784087 81.71015584 85.875 88.125 C85.28960449 88.8763623 84.70420898 89.62772461 84.10107422 90.40185547 C83.5288916 91.13807129 82.95670898 91.87428711 82.3671875 92.6328125 C81.61091064 93.60565186 81.61091064 93.60565186 80.83935547 94.59814453 C78.9892237 96.84158059 78.9892237 96.84158059 78.03616333 99.02618408 C76.58888399 101.65091535 75.40954753 103.190087 73 105 C67.48421228 106.14694327 62.05422608 105.93364578 56.4453125 105.78125 C55.00189682 105.76947613 53.55844696 105.76132183 52.11499023 105.75683594 C46.78446994 105.71502572 41.45468262 105.60333361 36.125 105.5 C24.20375 105.335 12.2825 105.17 0 105 C0 70.35 0 35.7 0 0 Z " fill="#2E2C1C" transform="translate(23,41)"/>
<path d="M0 0 C8.39000192 4.80559409 13.99933097 11.23487735 16.5625 20.5625 C17.1503125 22.233125 17.1503125 22.233125 17.75 23.9375 C18.5625 27.5625 18.5625 27.5625 18.5625 37.5625 C-2.2275 37.5625 -23.0175 37.5625 -44.4375 37.5625 C-43.43498756 49.59264929 -41.85938849 60.28894155 -32.4375 68.5625 C-26.86448939 72.24126695 -21.78997538 73.2782118 -15.1875 73.1875 C-14.35847168 73.17984619 -13.52944336 73.17219238 -12.67529297 73.16430664 C-4.53291171 72.87220683 2.23909752 70.65678208 8.2578125 64.95703125 C11.80613061 60.48445064 13.64628226 54.88294814 15.5625 49.5625 C15.8925 49.5625 16.2225 49.5625 16.5625 49.5625 C15.83776878 57.96938215 13.42733285 63.28849276 7.5625 69.5625 C0.8280439 74.95006488 -6.52520864 75.93960922 -14.875 75.875 C-15.61782227 75.87081055 -16.36064453 75.86662109 -17.12597656 75.86230469 C-24.95378131 75.70115409 -31.78935814 74.36329434 -37.4375 68.5625 C-46.40198106 57.74410793 -48.91045237 44.56069375 -47.75537109 30.84228516 C-46.39573059 21.09088497 -42.21715973 10.83788959 -34.4375 4.5625 C-23.8185326 -2.77041499 -12.13414005 -5.60275344 0 0 Z M-35.54296875 8.32421875 C-42.21486531 16.20668623 -44.4375 24.45416715 -44.4375 34.5625 C-24.3075 34.5625 -4.1775 34.5625 16.5625 34.5625 C16.5625 23.84986595 14.35960449 15.15078869 6.72265625 7.37109375 C-5.5364181 -2.89283288 -23.93753395 -2.36559989 -35.54296875 8.32421875 Z " fill="#565231" transform="translate(323.4375,71.4375)"/>
<path d="M0 0 C1.76171875 1.1171875 1.76171875 1.1171875 3.625 2.5625 C4.45644531 3.18382813 5.28789062 3.80515625 6.14453125 4.4453125 C15.257075 11.89011399 19.29986657 20.98598711 20.625 32.5625 C21.7567684 45.11300314 17.99487971 58.03828024 10.125 67.9375 C4.00821105 74.36012839 -1.68517812 76.74183251 -10.52832031 76.9934082 C-20.18585742 77.02289186 -26.55958437 75.52184174 -34.1875 69.25 C-41.375 60.41964286 -41.375 60.41964286 -41.375 56.5625 C-42.035 56.5625 -42.695 56.5625 -43.375 56.5625 C-43.375 71.4125 -43.375 86.2625 -43.375 101.5625 C-44.035 101.5625 -44.695 101.5625 -45.375 101.5625 C-45.375 68.2325 -45.375 34.9025 -45.375 0.5625 C-44.715 0.5625 -44.055 0.5625 -43.375 0.5625 C-43.375 7.1625 -43.375 13.7625 -43.375 20.5625 C-42.715 20.5625 -42.055 20.5625 -41.375 20.5625 C-41.25125 20.005625 -41.1275 19.44875 -41 18.875 C-38.86277724 10.96727579 -34.31786538 6.31333631 -27.6875 1.6875 C-19.69923228 -2.1986843 -8.45290323 -3.80120289 0 0 Z M-35.375 11.5625 C-41.63390597 19.52395811 -43.95157975 28.37407198 -43.875 38.375 C-43.86927979 39.24938721 -43.86355957 40.12377441 -43.85766602 41.0246582 C-43.65612922 48.3607331 -42.20455735 54.22526296 -38.375 60.5625 C-37.86710938 61.40296875 -37.35921875 62.2434375 -36.8359375 63.109375 C-32.80617363 68.95348753 -28.30188374 72.7509862 -21.375 74.5625 C-12.23688928 75.87385701 -3.07014253 76.03623568 4.64453125 70.40625 C7.8470698 67.42479399 10.34804192 64.29186988 12.625 60.5625 C13.2025 59.634375 13.78 58.70625 14.375 57.75 C19.12239105 45.64415283 19.5948111 30.64267754 14.625 18.5625 C10.60911562 10.9690431 5.48468244 4.89027774 -2.90625 2.06640625 C-16.01699458 -0.60967927 -26.31666985 1.86270012 -35.375 11.5625 Z " fill="#272724" transform="translate(208.375,70.4375)"/>
<path d="M0 0 C1.13381104 0.00845947 1.13381104 0.00845947 2.29052734 0.01708984 C10.35764703 0.19341079 16.10071054 2.05245495 22.1484375 7.64453125 C25.56035481 11.49873414 26.57208987 15.20138732 26.8125 20.25 C26.7196875 21.7659375 26.7196875 21.7659375 26.625 23.3125 C25.965 23.3125 25.305 23.3125 24.625 23.3125 C24.51542969 22.72082031 24.40585937 22.12914063 24.29296875 21.51953125 C23.18324215 15.98894257 22.05602154 11.65669934 17.875 7.625 C12.0978317 4.25498516 6.14673394 3.97264373 -0.375 4 C-1.14328125 3.98388672 -1.9115625 3.96777344 -2.703125 3.95117188 C-9.40099973 3.9454764 -14.00708367 5.39801446 -19.3125 9.6875 C-22.37516304 13.72695922 -22.06374455 18.43829585 -21.84765625 23.30859375 C-21.54680585 26.48712737 -21.54680585 26.48712737 -19.4375 29.4375 C-15.54021375 31.82359362 -11.74377758 33.05809852 -7.375 34.3125 C-5.99893379 34.80955814 -4.62393727 35.30958711 -3.25 35.8125 C0.82290016 37.21300602 4.87885638 37.8675224 9.125 38.5625 C17.79620367 40.22368345 22.42943872 43.72723612 28.1875 50.1875 C30.42724593 55.05651289 30.54278667 59.33105101 28.96484375 64.45703125 C26.7469557 69.47848341 23.43839751 73.59414241 18.625 76.3125 C12.77338855 78.14191172 7.36202146 78.69982014 1.25 78.6875 C-0.00127686 78.68508301 -0.00127686 78.68508301 -1.27783203 78.68261719 C-7.63809049 78.55608191 -12.840536 77.61700251 -18.375 74.3125 C-19.303125 73.77625 -20.23125 73.24 -21.1875 72.6875 C-25.55509296 67.94554193 -28.6875 62.23744395 -28.6875 55.6875 C-28.584375 54.57375 -28.48125 53.46 -28.375 52.3125 C-27.385 52.3125 -26.395 52.3125 -25.375 52.3125 C-25.30023438 53.09753906 -25.22546875 53.88257813 -25.1484375 54.69140625 C-24.25374303 61.84019053 -23.07998681 66.66953938 -17.375 71.3125 C-9.04321019 76.63066371 2.05199493 76.14247482 11.625 75.3125 C16.82606936 73.80230214 20.3957004 71.51253057 24.25 67.75 C26.31552738 62.58618154 26.35758289 57.79530458 25.625 52.3125 C23.04030306 46.91834986 17.97016847 45.33142721 12.625 43.3125 C7.60573647 41.86971401 2.5122008 40.75357588 -2.58007812 39.6015625 C-11.63743653 37.46501378 -18.85618682 35.17262786 -24.375 27.3125 C-26.20924618 21.80976147 -26.34008827 16.31988359 -23.8125 11.0625 C-16.75100974 3.09569047 -10.73401664 -0.08306226 0 0 Z " fill="#494528" transform="translate(447.375,68.6875)"/>
<path d="M0 0 C0.928125 0.5775 1.85625 1.155 2.8125 1.75 C6.72536907 5.77466533 9.23843566 10.29877816 9.25 16 C9.1675 16.99 9.085 17.98 9 19 C8.34 19 7.68 19 7 19 C6.7525 17.80375 6.505 16.6075 6.25 15.375 C5.01086175 10.44462598 2.87034334 6.74565378 -0.875 3.25 C-8.65622676 -1.32719221 -18.26578199 -0.99493613 -27 0 C-32.28806205 1.46158773 -35.76568112 3.40264616 -39.125 7.75 C-40.66130681 13.45628245 -40.95228217 17.94307052 -38.4375 23.375 C-33.85456715 28.31046615 -26.9520284 29.74695504 -20.625 31.5625 C-19.87404053 31.78301025 -19.12308105 32.00352051 -18.34936523 32.23071289 C-14.60265202 33.31576884 -10.90823776 34.26329195 -7.0625 34.9375 C-1.143142 36.1490645 4.83177959 39.4437312 8.74609375 44.05859375 C10.31203992 46.48312723 10.67981085 48.11829766 11 51 C11.07605469 51.67289063 11.15210938 52.34578125 11.23046875 53.0390625 C11.55603677 58.16015951 10.84210434 61.89340152 7.89453125 66.140625 C1.95179814 71.97308059 -6.70845338 75.10150593 -14.9375 75.25 C-24.41813911 75.11057884 -33.50458148 73.91319162 -40.41015625 66.94921875 C-45.35271182 60.88942704 -46.64679918 55.76159011 -46 48 C-45.01 48 -44.02 48 -43 48 C-42.85304688 49.19496094 -42.85304688 49.19496094 -42.703125 50.4140625 C-41.33954273 60.10724243 -41.33954273 60.10724243 -35.21875 67.46484375 C-29.40304116 71.16109532 -23.64430737 71.4897072 -16.9375 71.5625 C-15.67969727 71.58449463 -15.67969727 71.58449463 -14.39648438 71.60693359 C-6.66988984 71.481384 -0.13407144 69.2693046 5.5625 63.9375 C8.59963228 60.03141043 8.68898359 56.3422235 8.37890625 51.51953125 C7.87939531 48.19804095 7.36356706 46.43742853 5 44 C-3.35163013 38.75976148 -13.64768763 36.32804181 -23.16015625 33.93359375 C-24.15970337 33.68029297 -24.15970337 33.68029297 -25.17944336 33.421875 C-27.01489046 32.96491339 -28.85499281 32.52676867 -30.6953125 32.08984375 C-35.72478821 30.43118687 -39.13205096 28.44658173 -41.875 23.875 C-43.74810172 18.60549094 -44.14301473 13.0374558 -42.15625 7.7578125 C-39.00893106 2.12241034 -34.34299513 -1.47408279 -28.265625 -3.609375 C-18.83272302 -5.23573741 -8.19671841 -5.35295896 0 0 Z " fill="#2E2C1E" transform="translate(397,73)"/>
<path d="M0 0 C23.1 0 46.2 0 70 0 C70 0.66 70 1.32 70 2 C47.89 2.33 25.78 2.66 3 3 C2.67 18.18 2.34 33.36 2 49 C23.12 49 44.24 49 66 49 C66 49.99 66 50.98 66 52 C44.88 52 23.76 52 2 52 C2.07914701 68.32001241 2.07914701 68.32001241 2.18017578 84.63989258 C2.18601601 86.68310335 2.19111268 88.72631645 2.1953125 90.76953125 C2.20554443 91.83377319 2.21577637 92.89801514 2.22631836 93.99450684 C2.22656006 95.00928101 2.22680176 96.02405518 2.22705078 97.06958008 C2.231492 97.95116287 2.23593323 98.83274567 2.24050903 99.74104309 C2 102 2 102 0 105 C0 70.35 0 35.7 0 0 Z " fill="#3E3B21" transform="translate(23,41)"/>
<path d="M0 0 C0.90105469 0.00902344 1.80210937 0.01804687 2.73046875 0.02734375 C3.41753906 0.03894531 4.10460937 0.05054687 4.8125 0.0625 C4.8125 1.0525 4.8125 2.0425 4.8125 3.0625 C4.19503906 3.08828125 3.57757813 3.1140625 2.94140625 3.140625 C-5.18264297 3.68470136 -12.06076881 5.28421493 -17.625 11.5625 C-24.31990053 19.9549679 -24.48210723 30.21498207 -24.6015625 40.5390625 C-24.62092865 41.59032318 -24.6402948 42.64158386 -24.6602478 43.72470093 C-24.71949302 47.04555431 -24.76620678 50.36644341 -24.8125 53.6875 C-24.85073054 55.95444127 -24.88978513 58.22136879 -24.9296875 60.48828125 C-25.02514847 66.01289786 -25.11035295 71.53759889 -25.1875 77.0625 C-26.1775 77.0625 -27.1675 77.0625 -28.1875 77.0625 C-28.1875 52.3125 -28.1875 27.5625 -28.1875 2.0625 C-27.1975 2.0625 -26.2075 2.0625 -25.1875 2.0625 C-24.8575 7.0125 -24.5275 11.9625 -24.1875 17.0625 C-23.589375 15.721875 -22.99125 14.38125 -22.375 13 C-17.95667035 4.94004995 -9.1143105 -0.11836767 0 0 Z " fill="#464326" transform="translate(270.1875,68.9375)"/>
<path d="M0 0 C0.33 0 0.66 0 1 0 C1 16.83 1 33.66 1 51 C13.04442758 51.17114677 13.04442758 51.17114677 25.08789062 51.23046875 C30.00667544 51.22993955 34.92300206 51.24203092 39.84106445 51.33251953 C43.81028184 51.4047217 47.77580743 51.41760748 51.74554634 51.39070892 C53.25381518 51.39065345 54.76224306 51.41137905 56.26991081 51.4539566 C65.26580382 51.72869041 65.26580382 51.72869041 72.86930847 47.39178467 C75.23965655 44.45610725 77.11146374 41.26328905 79 38 C80.11852914 36.49593435 81.2574593 35.00633678 82.43359375 33.546875 C82.93697266 32.90878906 83.44035156 32.27070312 83.95898438 31.61328125 C84.44689453 30.99839844 84.93480469 30.38351563 85.4375 29.75 C85.95248047 29.08871094 86.46746094 28.42742187 86.99804688 27.74609375 C88.28483684 26.12544302 89.63670097 24.5568407 91 23 C91.66 23 92.32 23 93 23 C91.6145574 25.98981521 89.99132948 28.4615671 87.953125 31.046875 C87.355 31.81 86.756875 32.573125 86.140625 33.359375 C85.51671875 34.14828125 84.8928125 34.9371875 84.25 35.75 C83.02535519 37.30675188 81.80139152 38.86403985 80.578125 40.421875 C80.03575195 41.10862305 79.49337891 41.79537109 78.93457031 42.50292969 C76.99774654 44.82432457 76.99774654 44.82432457 76.0151062 47.03955078 C74.57016872 49.64734012 73.39196492 51.19440172 71 53 C65.56220155 54.14288816 60.18420799 53.93185449 54.6640625 53.78125 C53.05840886 53.76631671 51.4527186 53.75493482 49.84701538 53.74694824 C45.63415716 53.71649782 41.42352887 53.63800231 37.21154785 53.54931641 C32.15084417 53.45282652 27.08939194 53.41631181 22.0280304 53.36968994 C14.35047256 53.29228041 6.67780055 53.13896472 -1 53 C-0.67 35.51 -0.34 18.02 0 0 Z " fill="#363427" transform="translate(25,93)"/>
<path d="M0 0 C8.47368292 4.85352459 13.86601317 11.20410453 16.5625 20.5625 C16.748125 21.19027344 16.93375 21.81804687 17.125 22.46484375 C17.64555484 24.96071831 17.65851947 27.26502034 17.625 29.8125 C17.61597656 30.70453125 17.60695313 31.5965625 17.59765625 32.515625 C17.58605469 33.19109375 17.57445312 33.8665625 17.5625 34.5625 C17.2325 34.5625 16.9025 34.5625 16.5625 34.5625 C16.38074219 33.63308594 16.19898438 32.70367187 16.01171875 31.74609375 C14.01064167 21.90489931 12.28742556 13.51148438 4.5625 6.5625 C-4.16798811 1.08940991 -13.88842056 0.1814281 -23.95703125 2.0234375 C-31.53390374 4.56400618 -36.02642363 9.28916645 -39.6875 16.1875 C-42.47266962 22.13018812 -44.1402739 28.14464456 -45.4375 34.5625 C-45.7675 34.5625 -46.0975 34.5625 -46.4375 34.5625 C-47.4275976 24.61751971 -44.52678899 15.98142756 -38.25 8.1875 C-28.19703279 -2.39573361 -13.43047135 -6.20131458 0 0 Z " fill="#2F2D1E" transform="translate(323.4375,71.4375)"/>
<path d="M0 0 C1.76171875 1.1171875 1.76171875 1.1171875 3.625 2.5625 C4.45644531 3.18382813 5.28789062 3.80515625 6.14453125 4.4453125 C15.24424051 11.87962841 19.32302284 20.99140723 20.625 32.5625 C21.13446686 39.48908136 20.23017876 45.82648199 18.625 52.5625 C17.635 52.2325 16.645 51.9025 15.625 51.5625 C15.79 50.53125 15.955 49.5 16.125 48.4375 C17.73462141 35.06343975 17.28381473 22.60899526 9.15625 11.43359375 C5.26311257 6.67641817 0.64986817 3.83483241 -5.375 2.5625 C-11.79212285 2.15598543 -18.0893572 2.09466628 -24.375 3.5625 C-24.705 2.5725 -25.035 1.5825 -25.375 0.5625 C-18.48495593 -2.78218159 -7.07613008 -3.18207903 0 0 Z " fill="#534E2A" transform="translate(208.375,70.4375)"/>
<path d="M0 0 C0.33 0 0.66 0 1 0 C1.17015625 0.97839844 1.3403125 1.95679687 1.515625 2.96484375 C3.39035757 13.29764143 5.44288493 23.96605142 14 31 C19.65062905 34.62424238 24.59072201 35.71649222 31.25 35.625 C32.49354248 35.61351929 32.49354248 35.61351929 33.76220703 35.60180664 C41.90458829 35.30970683 48.67659752 33.09428208 54.6953125 27.39453125 C58.24363061 22.92195064 60.08378226 17.32044814 62 12 C62.33 12 62.66 12 63 12 C62.27526878 20.40688215 59.86483285 25.72599276 54 32 C47.2655439 37.38756488 39.91229136 38.37710922 31.5625 38.3125 C30.81967773 38.30831055 30.07685547 38.30412109 29.31152344 38.29980469 C21.48371869 38.13865409 14.64814186 36.80079434 9 31 C1.3531889 21.63216748 -0.62099562 11.89091613 0 0 Z " fill="#2A291B" transform="translate(277,109)"/>
<path d="M0 0 C0.33 0 0.66 0 1 0 C0.66452591 9.05780051 -3.35749263 15.84244446 -9.9375 22 C-16.58365045 27.87006069 -25.44888949 27.58918215 -33.81640625 27.3828125 C-40.74599337 26.95058786 -45.55429526 24.01091279 -50.8125 19.6875 C-58 10.85714286 -58 10.85714286 -58 7 C-58.66 7 -59.32 7 -60 7 C-60 6.34 -60 5.68 -60 5 C-59.01 5 -58.02 5 -57 5 C-56.1646875 6.794375 -56.1646875 6.794375 -55.3125 8.625 C-51.86011337 15.39836755 -48.1819046 19.86389473 -41.20703125 23.07421875 C-32.67068192 25.53842678 -22.20296239 25.8763796 -14.25 21.5625 C-6.91147946 16.19100558 -3.30998787 8.23602865 0 0 Z " fill="#2A2819" transform="translate(225,120)"/>
<path d="M0 0 C0.99 0 1.98 0 3 0 C3.09796875 0.79664062 3.1959375 1.59328125 3.296875 2.4140625 C4.38297206 10.96472442 4.38297206 10.96472442 9 18 C16.80758669 23.66526107 25.69646248 24.22662901 35 25 C35 25.33 35 25.66 35 26 C14.14709431 26.69083246 14.14709431 26.69083246 8.01171875 21.23046875 C2.40937845 15.16416652 -0.39379088 10.07796529 -0.10546875 1.7578125 C-0.07066406 1.17773438 -0.03585937 0.59765625 0 0 Z " fill="#262518" transform="translate(351,121)"/>
<path d="M0 0 C0.99 0 1.98 0 3 0 C3.07476562 0.78503906 3.14953125 1.57007812 3.2265625 2.37890625 C4.11637597 9.48869032 5.22148059 14.46335537 11 19 C17.29266951 22.94501973 22.87302091 24.08436247 30.25 24.5625 C31.51328125 24.64628906 32.7765625 24.73007813 34.078125 24.81640625 C35.52445312 24.90728516 35.52445312 24.90728516 37 25 C37 25.33 37 25.66 37 26 C25.63045404 26.47483023 17.24605438 26.1866092 7.1875 20.375 C2.81990704 15.63304193 -0.3125 9.92494395 -0.3125 3.375 C-0.209375 2.26125 -0.10625 1.1475 0 0 Z " fill="#242319" transform="translate(419,121)"/>
<path d="M0 0 C0.33 0 0.66 0 1 0 C1.02578125 0.58007812 1.0515625 1.16015625 1.078125 1.7578125 C1.47334133 7.20101925 2.2729055 10.76924408 6 15 C11.56881192 18.26330683 17.52686138 19.6110967 23.71875 21.19335938 C24.49734375 21.39896484 25.2759375 21.60457031 26.078125 21.81640625 C27.13628418 22.08626343 27.13628418 22.08626343 28.21582031 22.36157227 C30 23 30 23 32 25 C20.86572816 24.1166966 10.81788059 22.84823383 2 15.5 C-1.40327687 11.106472 -0.38163436 5.24111188 0 0 Z " fill="#222119" transform="translate(423,84)"/>
<path d="M0 0 C20.00899339 -1.09917156 20.00899339 -1.09917156 26.40234375 4.27734375 C31.55764782 9.83599679 33.14433856 14.35005631 33 22 C32.34 22 31.68 22 31 22 C30.83564453 21.11248047 30.83564453 21.11248047 30.66796875 20.20703125 C29.58020935 14.7859214 28.57418426 10.25241122 24.25 6.46875 C17.45283805 2.03171372 7.9345316 1.50907393 0 1 C0 0.67 0 0.34 0 0 Z " fill="#373520" transform="translate(441,70)"/>
<path d="M0 0 C0.70833984 -0.00128906 1.41667969 -0.00257812 2.14648438 -0.00390625 C7.87257335 0.11198516 11.47294251 1.23196167 16.1875 4.375 C15.8575 5.365 15.5275 6.355 15.1875 7.375 C14.15625 6.88 13.125 6.385 12.0625 5.875 C4.65753391 3.06667655 -4.19024629 3.59503868 -11.8125 5.375 C-12.1425 4.385 -12.4725 3.395 -12.8125 2.375 C-8.56927193 0.31518055 -4.64284389 -0.00868633 0 0 Z " fill="#393620" transform="translate(195.8125,68.625)"/>
<path d="M0 0 C0.99 0 1.98 0 3 0 C3.52980469 0.75925781 4.05960937 1.51851563 4.60546875 2.30078125 C7.97088793 6.09442669 11.52741336 6.84914243 16.3125 8.1875 C17.14201172 8.43435547 17.97152344 8.68121094 18.82617188 8.93554688 C21.2126515 9.64188457 23.60461604 10.32456187 26 11 C27.36858404 11.3915971 28.73708469 11.7834859 30.10546875 12.17578125 C31.53826172 12.58376953 31.53826172 12.58376953 33 13 C33 13.66 33 14.32 33 15 C8.3021148 10.35679758 8.3021148 10.35679758 2 5 C0.625 2.25 0.625 2.25 0 0 Z " fill="#24231A" transform="translate(355,95)"/>
<path d="M0 0 C6.28603631 0.77605387 9.75687081 4.56616838 14 9 C19.8087345 16.4961881 20.33658286 24.87486465 20 34 C19.67 34 19.34 34 19 34 C18.81824219 33.07058594 18.63648438 32.14117187 18.44921875 31.18359375 C15.59963125 17.16946858 11.95380733 9.12858899 0 1 C0 0.67 0 0.34 0 0 Z " fill="#262419" transform="translate(321,72)"/>
<path d="M0 0 C0.99 0 1.98 0 3 0 C3.8353125 1.794375 3.8353125 1.794375 4.6875 3.625 C8.76180715 11.61853687 13.35734706 16.19085461 22 19 C26.6698244 19.65949753 31.28676949 19.92529462 36 20 C36 20.33 36 20.66 36 21 C26.62778212 22.36396831 19.90577326 22.59740816 12 17 C7.66536428 13.43596618 4.5769044 8.96739444 2 4 C2 3.34 2 2.68 2 2 C1.34 2 0.68 2 0 2 C0 1.34 0 0.68 0 0 Z " fill="#383624" transform="translate(165,125)"/>
<path d="M0 0 C0.66 0.99 1.32 1.98 2 3 C0.08588443 3.98414433 -1.8313967 4.96213349 -3.75 5.9375 C-5.35101563 6.75541016 -5.35101563 6.75541016 -6.984375 7.58984375 C-11.35690389 9.63451076 -14.80446207 10.17203982 -19.625 10.25 C-21.06746094 10.28867188 -21.06746094 10.28867188 -22.5390625 10.328125 C-23.35117187 10.21984375 -24.16328125 10.1115625 -25 10 C-25.66 9.01 -26.32 8.02 -27 7 C-25.94941406 6.97421875 -24.89882813 6.9484375 -23.81640625 6.921875 C-10.8331574 6.56184412 -10.8331574 6.56184412 0 0 Z " fill="#4E4A2D" transform="translate(401,138)"/>
<path d="M0 0 C4.44784203 0.5083248 6.83569223 1.83569223 10 5 C13.34488512 9.99560765 14.49727632 14.03268416 14 20 C13.34 20 12.68 20 12 20 C11.7525 18.80375 11.505 17.6075 11.25 16.375 C9.45636851 9.31257602 5.52379258 5.39392592 0 1 C0 0.67 0 0.34 0 0 Z " fill="#2B2A1D" transform="translate(392,72)"/>
<path d="M0 0 C-0.5625 1.8125 -0.5625 1.8125 -2 4 C-8.73533296 7.49719211 -14.63198672 8.22965107 -22.125 7.6875 C-23.32382812 7.60886719 -24.52265625 7.53023437 -25.7578125 7.44921875 C-28.74144946 7.03582327 -30.40893345 6.40111871 -33 5 C-32.12432373 5.03927612 -32.12432373 5.03927612 -31.23095703 5.0793457 C-19.93799925 5.51969302 -9.57049136 0 0 0 Z " fill="#4C4829" transform="translate(471,139)"/>
<path d="M0 0 C0.33 0 0.66 0 1 0 C0.27764472 8.37932125 -2.2642427 13.84455314 -8 20 C-10.3125 21.375 -10.3125 21.375 -12 22 C-12.66 21.34 -13.32 20.68 -14 20 C-13.0925 19.46375 -12.185 18.9275 -11.25 18.375 C-4.8158036 14.02512075 -2.60072305 6.99981842 0 0 Z " fill="#2B291B" transform="translate(339,121)"/>
<path d="M0 0 C0.66 0.33 1.32 0.66 2 1 C1.60167969 1.72703125 1.20335937 2.4540625 0.79296875 3.203125 C-2.96529112 10.33558898 -5.40358525 17.1019481 -7 25 C-7.33 25 -7.66 25 -8 25 C-8.82065656 16.75696076 -6.92677201 10.26729354 -3 3 C-1.33203125 1.15234375 -1.33203125 1.15234375 0 0 Z " fill="#302E1E" transform="translate(285,81)"/>
<path d="M0 0 C2.70860665 -0.05429278 5.41610901 -0.09381211 8.125 -0.125 C8.88554687 -0.14175781 9.64609375 -0.15851563 10.4296875 -0.17578125 C15.03270731 -0.21546246 18.66464004 0.24092423 23 2 C22.67 2.99 22.34 3.98 22 5 C21.34644531 4.84660156 20.69289063 4.69320312 20.01953125 4.53515625 C16.24507841 3.86620406 12.51094004 3.64592703 8.6875 3.4375 C7.94693359 3.39431641 7.20636719 3.35113281 6.44335938 3.30664062 C4.62908536 3.20129568 2.8145645 3.10021684 1 3 C0.67 2.01 0.34 1.02 0 0 Z " fill="#676133" transform="translate(371,69)"/>
<path d="M0 0 C5.90659395 2.95329697 10.40765282 7.92684863 13 14 C13.125 16.75 13.125 16.75 13 19 C10.88693047 16.24109616 8.94686006 13.41900868 7.0625 10.5 C4.95250722 7.29554713 2.77160614 4.6650059 0 2 C0 1.34 0 0.68 0 0 Z " fill="#2B2A1B" transform="translate(212,74)"/>
<path d="M0 0 C0.77923828 0.01353516 1.55847656 0.02707031 2.36132812 0.04101562 C4.26202404 0.07599776 6.16235834 0.12979041 8.0625 0.1875 C8.0625 0.5175 8.0625 0.8475 8.0625 1.1875 C6.4125 1.5175 4.7625 1.8475 3.0625 2.1875 C3.0625 2.5175 3.0625 2.8475 3.0625 3.1875 C2.17046875 3.24808594 1.2784375 3.30867188 0.359375 3.37109375 C-1.39632813 3.49677734 -1.39632813 3.49677734 -3.1875 3.625 C-4.92773438 3.74681641 -4.92773438 3.74681641 -6.703125 3.87109375 C-9.81335677 4.07666293 -9.81335677 4.07666293 -12.234375 4.84765625 C-12.79640625 4.95980469 -13.3584375 5.07195312 -13.9375 5.1875 C-14.5975 4.5275 -15.2575 3.8675 -15.9375 3.1875 C-10.3935148 0.38237601 -6.16479121 -0.2060213 0 0 Z " fill="#625D31" transform="translate(447.9375,68.8125)"/>
<path d="M0 0 C1.30710937 -0.01417969 2.61421875 -0.02835937 3.9609375 -0.04296875 C7.36298963 0.1710196 9.59183747 0.70605189 12.625 2.1875 C12.625 3.1775 12.625 4.1675 12.625 5.1875 C9.64520106 4.88027348 6.66626241 4.56698528 3.6875 4.25 C2.83736328 4.16298828 1.98722656 4.07597656 1.11132812 3.98632812 C0.30244141 3.89931641 -0.50644531 3.81230469 -1.33984375 3.72265625 C-2.0887085 3.644104 -2.83757324 3.56555176 -3.60913086 3.48461914 C-5.375 3.1875 -5.375 3.1875 -6.375 2.1875 C-7.70094105 1.82587971 -9.03438457 1.49021961 -10.375 1.1875 C-6.77617994 -0.01210669 -3.79362018 0.01863271 0 0 Z " fill="#645E31" transform="translate(309.375,68.8125)"/>
<path d="M0 0 C0.61230469 0.19464844 1.22460938 0.38929687 1.85546875 0.58984375 C1.26378906 1.01394531 0.67210937 1.43804687 0.0625 1.875 C-5.06286127 5.67930567 -8.73055022 9.19355116 -12.14453125 14.58984375 C-12.80453125 13.59984375 -13.46453125 12.60984375 -14.14453125 11.58984375 C-3.77508151 -0.72201012 -3.77508151 -0.72201012 0 0 Z " fill="#302E1D" transform="translate(183.14453125,72.41015625)"/>
<path d="M0 0 C3.98776157 2.94469938 6.88913027 6.1123412 9.875 10.0625 C10.67679688 11.10535156 11.47859375 12.14820312 12.3046875 13.22265625 C12.86414063 14.13917969 13.42359375 15.05570313 14 16 C13.67 16.99 13.34 17.98 13 19 C10.82142659 16.40559005 8.65929995 13.79796345 6.5 11.1875 C5.87996094 10.44951172 5.25992188 9.71152344 4.62109375 8.95117188 C4.03457031 8.23896484 3.44804687 7.52675781 2.84375 6.79296875 C2.29912109 6.1383667 1.75449219 5.48376465 1.19335938 4.80932617 C0 3 0 3 0 0 Z " fill="#262519" transform="translate(127,110)"/>
<path d="M0 0 C0 0.99 0 1.98 0 3 C-1.01320313 3.09087891 -1.01320313 3.09087891 -2.046875 3.18359375 C-2.93890625 3.26738281 -3.8309375 3.35117188 -4.75 3.4375 C-5.63171875 3.51871094 -6.5134375 3.59992188 -7.421875 3.68359375 C-9.69350452 3.96238465 -11.79851823 4.38790577 -14 5 C-14.33 4.01 -14.66 3.02 -15 2 C-10.13948404 -0.59227518 -5.34728867 -0.18689553 0 0 Z " fill="#5C572D" transform="translate(275,69)"/>
<path d="M0 0 C5.85272256 0.45020943 10.08220119 3.03839227 15 6 C14.67 6.99 14.34 7.98 14 9 C13.49210937 8.73445313 12.98421875 8.46890625 12.4609375 8.1953125 C8.37781098 6.10022511 4.4126938 4.32380814 0 3 C0 2.01 0 1.02 0 0 Z " fill="#2F2D1F" transform="translate(388,108)"/>
<path d="M0 0 C0.74056641 0.00902344 1.48113281 0.01804687 2.24414062 0.02734375 C4.05873467 0.05075787 5.87316071 0.08662385 7.6875 0.125 C4.54482705 2.89055219 2.40176979 3.53118273 -1.75 3.75 C-5.36679939 3.9612734 -8.77204349 4.34108767 -12.3125 5.125 C-12.6425 4.135 -12.9725 3.145 -13.3125 2.125 C-8.90220217 -0.08449832 -4.82309676 -0.1120648 0 0 Z " fill="#6A6433" transform="translate(196.3125,68.875)"/>
<path d="M0 0 C-1.29055736 2.74967731 -2.71084296 5.07873302 -4.6015625 7.453125 C-5.33632812 8.38125 -5.33632812 8.38125 -6.0859375 9.328125 C-6.59382813 9.96234375 -7.10171875 10.5965625 -7.625 11.25 C-8.140625 11.8996875 -8.65625 12.549375 -9.1875 13.21875 C-10.45514179 14.81503967 -11.72714361 16.40786526 -13 18 C-13.33 17.01 -13.66 16.02 -14 15 C-13.04370117 13.2824707 -13.04370117 13.2824707 -11.54296875 11.42578125 C-11.00736328 10.75869141 -10.47175781 10.09160156 -9.91992188 9.40429688 C-9.34822266 8.71400391 -8.77652344 8.02371094 -8.1875 7.3125 C-7.34735352 6.2596582 -7.34735352 6.2596582 -6.49023438 5.18554688 C-2.2722531 0 -2.2722531 0 0 0 Z " fill="#272619" transform="translate(118,116)"/>
<path d="M0 0 C3.37991014 3.11307513 5.82236619 5.50358001 7 10 C7.07646165 12.3320802 7.09143299 14.66845878 7 17 C6.34 17 5.68 17 5 17 C4.90203125 16.43152344 4.8040625 15.86304687 4.703125 15.27734375 C3.63676081 9.77085969 2.01715751 5.7268801 -1 1 C-0.67 0.67 -0.34 0.34 0 0 Z " fill="#1F1E18" transform="translate(467,75)"/>
<path d="M0 0 C3.63 0.66 7.26 1.32 11 2 C11 2.99 11 3.98 11 5 C9 6 9 6 6.8359375 5.44140625 C6.02382813 5.15136719 5.21171875 4.86132812 4.375 4.5625 C3.55773437 4.27503906 2.74046875 3.98757812 1.8984375 3.69140625 C1.27195312 3.46324219 0.64546875 3.23507813 0 3 C0 2.01 0 1.02 0 0 Z " fill="#635D2C" transform="translate(453,107)"/>
<path d="M0 0 C2.65276917 0.38144393 3.81830943 0.81790113 5.73828125 2.7421875 C6.25777344 3.44601563 6.77726562 4.14984375 7.3125 4.875 C8.11107422 5.92300781 8.11107422 5.92300781 8.92578125 6.9921875 C9.28027344 7.65476562 9.63476562 8.31734375 10 9 C9.67 9.99 9.34 10.98 9 12 C5.0963126 8.53005564 2.63411025 4.44775994 0 0 Z " fill="#32301E" transform="translate(96,71)"/>
<path d="M0 0 C0.99 0 1.98 0 3 0 C3.33 3.63 3.66 7.26 4 11 C3.01 11 2.02 11 1 11 C-0.20272819 8.59454362 -0.10071472 7.05003047 -0.0625 4.375 C-0.05347656 3.55773437 -0.04445313 2.74046875 -0.03515625 1.8984375 C-0.02355469 1.27195312 -0.01195312 0.64546875 0 0 Z " fill="#58532A" transform="translate(351,121)"/>
<path d="M0 0 C0.33 0 0.66 0 1 0 C1.47617251 6.69286912 1.39973696 10.77531236 -3 16 C-3.66 15.34 -4.32 14.68 -5 14 C-4.360625 12.989375 -3.72125 11.97875 -3.0625 10.9375 C-0.93151044 7.24780076 -0.34460387 4.22139745 0 0 Z " fill="#1F1E17" transform="translate(475,124)"/>
<path d="M0 0 C0.99 0 1.98 0 3 0 C3.25 7.625 3.25 7.625 1 11 C-0.28317892 7.15046324 -0.06643637 4.05261865 0 0 Z " fill="#524E2B" transform="translate(419,121)"/>
<path d="M0 0 C5.03985731 0.44469329 7.37634988 2.71343362 11 6 C10.01 7.485 10.01 7.485 9 9 C6 6 3 3 0 0 Z " fill="#28271B" transform="translate(463,111)"/>
<path d="M0 0 C5.27315333 0.4452885 10.01770224 1.08373163 15 3 C15 3.33 15 3.66 15 4 C4.44191344 3.22095672 4.44191344 3.22095672 0 1 C0 0.67 0 0.34 0 0 Z " fill="#201F18" transform="translate(440,105)"/>
<path d="M0 0 C1.20076172 0.31324219 1.20076172 0.31324219 2.42578125 0.6328125 C3.23402344 0.83648437 4.04226563 1.04015625 4.875 1.25 C5.48988281 1.41757813 6.10476563 1.58515625 6.73828125 1.7578125 C6.40828125 2.7478125 6.07828125 3.7378125 5.73828125 4.7578125 C1.78902445 4.20675341 -1.61092049 3.36845879 -5.26171875 1.7578125 C-2.26171875 -0.2421875 -2.26171875 -0.2421875 0 0 Z " fill="#524E29" transform="translate(436.26171875,102.2421875)"/>
<path d="M0 0 C2.17854707 3.2678206 3.49760034 6.38058265 5 10 C4.01 10.33 3.02 10.66 2 11 C1.46770674 9.73392393 0.94955456 8.46189588 0.4375 7.1875 C0.14746094 6.47980469 -0.14257812 5.77210938 -0.44140625 5.04296875 C-1 3 -1 3 0 0 Z " fill="#413E23" transform="translate(280,124)"/>
<path d="M0 0 C0.33 0 0.66 0 1 0 C0.88512252 1.58409994 0.75765492 3.16728963 0.625 4.75 C0.52058594 6.07257813 0.52058594 6.07257813 0.4140625 7.421875 C0.00149945 9.99066382 -0.71160957 11.75841015 -2 14 C-2.05437607 12.41705218 -2.09296271 10.83355744 -2.125 9.25 C-2.14820313 8.36828125 -2.17140625 7.4865625 -2.1953125 6.578125 C-1.99139502 3.8864142 -1.36551721 2.30095026 0 0 Z " fill="#1C1B15" transform="translate(279,92)"/>
<path d="M0 0 C3.7952131 1.49097658 5.61042731 3.75700849 8 7 C4.84859577 6.65930765 3.39218439 6.41923159 1.1875 4.0625 C0 2 0 2 0 0 Z " fill="#2E2C1E" transform="translate(283,134)"/>
<path d="M0 0 C3.35620271 1.38877354 5.07298728 2.91677965 7 6 C7 6.66 7 7.32 7 8 C3.64379729 6.61122646 1.92701272 5.08322035 0 2 C0 1.34 0 0.68 0 0 Z " fill="#26241A" transform="translate(148,138)"/>
<path d="M0 0 C0.33 0 0.66 0 1 0 C0.25 6.625 0.25 6.625 -2 10 C-2.66 10 -3.32 10 -4 10 C-3.29445932 6.33118845 -1.72264494 3.29549466 0 0 Z " fill="#2A291B" transform="translate(406,130)"/>
<path d="M0 0 C0.33 0 0.66 0 1 0 C0.38461538 7.50769231 0.38461538 7.50769231 -1.5625 10 C-2.036875 10.33 -2.51125 10.66 -3 11 C-2.44894091 7.0507432 -1.61064629 3.65079826 0 0 Z " fill="#1E1D16" transform="translate(225,120)"/>
<path d="M0 0 C5.75 0.75 5.75 0.75 8 3 C4.71303767 3.79953138 3.28976808 4.09658936 0 3 C0 2.01 0 1.02 0 0 Z " fill="#524D29" transform="translate(388,108)"/>
<path d="M0 0 C1.22589844 0.29197266 1.22589844 0.29197266 2.4765625 0.58984375 C3.41628906 0.82380859 3.41628906 0.82380859 4.375 1.0625 C4.375 1.3925 4.375 1.7225 4.375 2.0625 C2.91707116 2.11649736 1.45857288 2.15529177 0 2.1875 C-0.81210937 2.21070312 -1.62421875 2.23390625 -2.4609375 2.2578125 C-4.625 2.0625 -4.625 2.0625 -6.625 0.0625 C-3.99249612 -1.25375194 -2.82320944 -0.68563658 0 0 Z " fill="#413D24" transform="translate(369.625,102.9375)"/>
<path d="M0 0 C0.99 0.33 1.98 0.66 3 1 C1.68 3.31 0.36 5.62 -1 8 C-1.99 7.67 -2.98 7.34 -4 7 C-2.68 4.69 -1.36 2.38 0 0 Z " fill="#29271C" transform="translate(358,76)"/>
<path d="M0 0 C0.99 0.33 1.98 0.66 3 1 C0.525 4.465 0.525 4.465 -2 8 C-2.66 7.01 -3.32 6.02 -4 5 C-2.68 3.35 -1.36 1.7 0 0 Z " fill="#3C3921" transform="translate(150,71)"/>
<path d="M0 0 C0.66 0 1.32 0 2 0 C2.99 2.64 3.98 5.28 5 8 C4.01 8 3.02 8 2 8 C0.23537317 4.91190305 0 3.76687864 0 0 Z " fill="#28271D" transform="translate(421,129)"/>
<path d="M0 0 C0 0.66 0 1.32 0 2 C-2.31 2.66 -4.62 3.32 -7 4 C-7.66 3.34 -8.32 2.68 -9 2 C-5.62902617 0.50178941 -3.79557881 0 0 0 Z " fill="#3D3A23" transform="translate(327,142)"/>
<path d="M0 0 C2.56687367 3.8503105 1.83288724 5.58569763 1 10 C-0.80411967 7.24075815 -1.0127245 6.11027897 -0.625 2.75 C-0.41875 1.8425 -0.2125 0.935 0 0 Z " fill="#49452A" transform="translate(225,90)"/>
<path d="M0 0 C0.66 0.99 1.32 1.98 2 3 C0.02 5.97 0.02 5.97 -2 9 C-2.6875 7.3125 -2.6875 7.3125 -3 5 C-1.5625 2.25 -1.5625 2.25 0 0 Z " fill="#312F1E" transform="translate(221,129)"/>
</svg>
