<?xml version="1.0" encoding="UTF-8"?>
<svg version="1.1" xmlns="http://www.w3.org/2000/svg" width="100" height="100">
<path d="M0 0 C0.81831299 0.4444043 1.63662598 0.88880859 2.47973633 1.34667969 C3.23810791 1.74209961 3.99647949 2.13751953 4.77783203 2.54492188 C5.56246826 2.9899707 6.34710449 3.43501953 7.15551758 3.89355469 C8.05496094 4.40233154 8.9544043 4.9111084 9.88110352 5.43530273 C10.84177734 5.98355713 11.80245117 6.53181152 12.79223633 7.09667969 C13.79029297 7.66362549 14.78834961 8.23057129 15.81665039 8.81469727 C45.7741724 25.87630374 45.7741724 25.87630374 52.47973633 30.34667969 C52.87414551 32.84483337 52.87414551 32.84483337 52.8996582 36.03393555 C52.91557007 37.22534653 52.93148193 38.41675751 52.94787598 39.64427185 C52.94807739 40.93696487 52.94827881 42.2296579 52.94848633 43.56152344 C52.9555846 44.89669619 52.9632831 46.23186588 52.97155762 47.56703186 C52.98501686 50.36728389 52.98656509 53.16725394 52.98071289 55.9675293 C52.97481708 59.55716575 53.00539327 63.14544946 53.04582977 66.73482418 C53.07167488 69.49295852 53.07458721 72.25076585 53.07093811 75.00900459 C53.07345701 76.97612549 53.09818276 78.94317717 53.12316895 80.91014099 C53.11386353 82.10470413 53.10455811 83.29926727 53.0949707 84.5300293 C53.09702515 85.58322861 53.09907959 86.63642792 53.10119629 87.72154236 C52.47973633 90.34667969 52.47973633 90.34667969 50.09425354 92.24835205 C47.47973633 93.34667969 47.47973633 93.34667969 45.03222656 92.73657227 C43.7687439 92.04857544 43.7687439 92.04857544 42.47973633 91.34667969 C41.55942627 90.85514404 40.63911621 90.3636084 39.69091797 89.85717773 C38.68407959 89.28008057 37.67724121 88.7029834 36.63989258 88.10839844 C36.07765488 87.78692337 35.51541718 87.4654483 34.93614197 87.13423157 C33.73926524 86.44900984 32.54328407 85.76222179 31.34814453 85.07397461 C29.02592703 83.73690224 26.6994797 82.40731338 24.37013245 81.08270264 C23.15636318 80.3807374 21.95164815 79.66291989 20.75572205 78.93096924 C16.83636836 76.55945652 12.9457478 74.68858084 8.69091797 72.98046875 C2.53534912 70.30128446 -3.20551244 67.6379193 -7.52026367 62.34667969 C-10.9220498 53.29387591 -9.92543889 43.30355756 -9.32232666 33.81518555 C-9.16864037 31.00674673 -9.11776708 28.20055341 -9.07078838 25.3886013 C-9.01136214 22.0266566 -8.89886869 18.66810055 -8.78198242 15.30761719 C-8.73877365 14.05145599 -8.69556488 12.7952948 -8.65104675 11.50106812 C-8.58041519 10.34200958 -8.50978363 9.18295105 -8.43701172 7.98876953 C-8.38175827 6.96874847 -8.32650482 5.94872742 -8.26957703 4.89779663 C-7.52026367 2.34667969 -7.52026367 2.34667969 -5.1204834 0.45321655 C-2.52026367 -0.65332031 -2.52026367 -0.65332031 0 0 Z " fill="#65DEFE" transform="translate(27.520263671875,3.6533203125)"/>
<path d="M0 0 C3.71435228 1.48574091 6.93157972 2.97614994 10.39453125 4.90625 C11.42586182 5.47802979 12.45719238 6.04980957 13.51977539 6.63891602 C15.74858347 7.89866273 17.96765729 9.17576241 20.17749023 10.46850586 C25.78013689 13.73607364 31.01987122 16.71246534 37.30566406 18.41821289 C40.9472929 20.26463374 43.65518914 22.64953623 46 26 C46.91169371 28.96488823 46.97447767 31.75994472 46.96484375 34.84765625 C46.9853479 35.67083344 47.00585205 36.49401062 47.02697754 37.34213257 C47.17098595 45.91053107 46.66958662 54.46148288 46 63 C37.97942945 58.76269258 29.9747502 54.53218583 22.1875 49.875 C21.47956299 49.45613525 20.77162598 49.03727051 20.04223633 48.60571289 C15.32288076 45.80883798 10.63305298 42.96542956 5.98046875 40.05859375 C3.75705668 38.76683534 3.75705668 38.76683534 0 38 C0 25.46 0 12.92 0 0 Z " fill="#608BF8" transform="translate(24,24)"/>
<path d="M0 0 C2.4926276 1.17874747 4.8941373 2.42396827 7.29223633 3.78417969 C8.19167969 4.29295654 9.09112305 4.8017334 10.01782227 5.32592773 C10.97849609 5.87418213 11.93916992 6.42243652 12.92895508 6.98730469 C13.92701172 7.55425049 14.92506836 8.12119629 15.95336914 8.70532227 C45.91089115 25.76692874 45.91089115 25.76692874 52.61645508 30.23730469 C52.97721863 32.75564575 52.97721863 32.75564575 52.95703125 35.97216797 C52.95669136 37.77380905 52.95669136 37.77380905 52.9563446 39.61184692 C52.94086075 40.91395111 52.92537689 42.2160553 52.90942383 43.55761719 C52.90382924 44.89996874 52.89955849 46.24232641 52.89656067 47.58468628 C52.88510093 51.1194141 52.85562466 54.65377266 52.82244873 58.18835449 C52.79177179 61.79446415 52.77806046 65.40063343 52.76293945 69.00683594 C52.7307556 76.08381001 52.67954601 83.16053326 52.61645508 90.23730469 C50.63645508 91.22730469 48.65645508 92.21730469 46.61645508 93.23730469 C46.6416774 92.53288239 46.66689972 91.82846008 46.69288635 91.10269165 C46.91662755 84.42461355 47.05682297 77.75040854 47.10611057 71.06864357 C47.13432172 67.63343426 47.19337888 64.20485661 47.32617188 60.77197266 C48.49630883 46.3148617 48.49630883 46.3148617 44.08804321 33.10229492 C40.18529706 29.64293239 35.71203955 27.80211267 30.8409729 26.07659912 C27.50243202 24.81699187 24.66671672 23.04944283 21.62036133 21.19042969 C18.38366863 19.32811641 15.14562786 17.46816392 11.9074707 15.60839844 C8.80682094 13.82425715 5.71142065 12.03128244 2.61645508 10.23730469 C1.62371582 9.67076172 0.63097656 9.10421875 -0.3918457 8.52050781 C-1.30820801 7.98876953 -2.22457031 7.45703125 -3.16870117 6.90917969 C-3.98346924 6.44092773 -4.7982373 5.97267578 -5.63769531 5.49023438 C-6.50189087 4.87003418 -6.50189087 4.87003418 -7.38354492 4.23730469 C-7.38354492 3.57730469 -7.38354492 2.91730469 -7.38354492 2.23730469 C-3.27641513 -1.04839915 -3.27641513 -1.04839915 0 0 Z " fill="#60D0F3" transform="translate(27.383544921875,3.7626953125)"/>
<path d="M0 0 C0 19.47 0 38.94 0 59 C-1.98 59.99 -3.96 60.98 -6 62 C-6.11581577 54.35936298 -6.20467513 46.71881687 -6.25906086 39.07750225 C-6.28516304 35.52929892 -6.32056949 31.98169576 -6.37719727 28.43383789 C-6.44188405 24.35557272 -6.46617492 20.27793854 -6.48828125 16.19921875 C-6.51408768 14.92414963 -6.5398941 13.64908051 -6.56648254 12.33537292 C-6.56704903 10.56387627 -6.56704903 10.56387627 -6.56762695 8.7565918 C-6.57873001 7.71512497 -6.58983307 6.67365814 -6.60127258 5.60063171 C-6 3 -6 3 -3.52702332 1.14021301 C-1 0 -1 0 0 0 Z " fill="#479CB3" transform="translate(80,35)"/>
<path d="M0 0 C3.99810491 0.59632751 6.92087222 1.857559 10.4296875 3.84375 C11.46609375 4.42664795 12.5025 5.0095459 13.5703125 5.61010742 C15.20613281 6.54560425 15.20613281 6.54560425 16.875 7.5 C17.98875 8.13204346 19.1025 8.76408691 20.25 9.4152832 C23.50504632 11.26819566 26.75325867 13.13258313 30 15 C30.86399414 15.49290527 31.72798828 15.98581055 32.61816406 16.49365234 C34.7521817 17.71379462 36.87804586 18.94652859 39 20.1875 C39.60956543 20.53683594 40.21913086 20.88617188 40.84716797 21.24609375 C44.88329484 23.64988453 44.88329484 23.64988453 46 27 C42.05052737 25.53125568 38.4990938 23.67763105 34.84375 21.5859375 C34.26016724 21.25260406 33.67658447 20.91927063 33.07531738 20.57583618 C31.8406645 19.8696537 30.60691586 19.16188822 29.37402344 18.45263672 C27.53547032 17.39539682 25.69380243 16.34376815 23.8515625 15.29296875 C17.71921629 11.7850972 11.62717745 8.2147509 5.59375 4.5390625 C3.98016602 3.55607178 3.98016602 3.55607178 2.33398438 2.55322266 C1.56376953 2.04065918 0.79355469 1.5280957 0 1 C0 0.67 0 0.34 0 0 Z " fill="#5DC3EA" transform="translate(24,62)"/>
<path d="M0 0 C2.475 0.99 2.475 0.99 5 2 C4.01 2.495 4.01 2.495 3 3 C2.19004154 5.27029535 2.19004154 5.27029535 1.5625 8 C0.25883258 13.08829378 -1.27351903 18.04095893 -3 23 C-4.32 22.34 -5.64 21.68 -7 21 C-2.69934641 2.69934641 -2.69934641 2.69934641 0 0 Z " fill="#C0C3CB" transform="translate(49,43)"/>
<path d="M0 0 C10 11.53846154 10 11.53846154 10 17 C6.7 18.65 3.4 20.3 0 22 C0 20.35 0 18.7 0 17 C2.5 14.6875 2.5 14.6875 5 13 C4.6390625 12.39671875 4.278125 11.7934375 3.90625 11.171875 C3.21015625 9.97304688 3.21015625 9.97304688 2.5 8.75 C2.0359375 7.96109375 1.571875 7.1721875 1.09375 6.359375 C0 4 0 4 0 0 Z " fill="#C2C5CE" transform="translate(56,50)"/>
<path d="M0 0 C-0.1875 2.375 -0.1875 2.375 -1 5 C-3.55078125 6.1640625 -3.55078125 6.1640625 -6 7 C-5.566875 7.66386719 -5.13375 8.32773437 -4.6875 9.01171875 C-4.130625 9.89472656 -3.57375 10.77773438 -3 11.6875 C-2.443125 12.55761719 -1.88625 13.42773438 -1.3125 14.32421875 C0.08325608 17.16973337 0.26993648 18.8788594 0 22 C-3.04408304 18.43312878 -5.21082201 14.90489084 -7.25 10.6875 C-7.77078125 9.61886719 -8.2915625 8.55023438 -8.828125 7.44921875 C-9.21484375 6.64097656 -9.6015625 5.83273438 -10 5 C-8.71186658 4.16121545 -7.41936744 3.32913217 -6.125 2.5 C-5.40570313 2.0359375 -4.68640625 1.571875 -3.9453125 1.09375 C-2 0 -2 0 0 0 Z " fill="#C2C5CF" transform="translate(38,39)"/>
<path d="M0 0 C4.57962746 1.46465563 6.12058736 5.14220969 8.25 9.125 C8.79527344 10.11306641 8.79527344 10.11306641 9.3515625 11.12109375 C10.24423736 12.74200336 11.12345675 14.37031036 12 16 C11.34 16.66 10.68 17.32 10 18 C0 3.3 0 3.3 0 0 Z " fill="#888D9A" transform="translate(56,48)"/>
<path d="M0 0 C0.99 0 1.98 0 3 0 C8.74031891 9.22551253 8.74031891 9.22551253 8 15 C7.34 15 6.68 15 6 15 C5.62875 13.7315625 5.62875 13.7315625 5.25 12.4375 C4.2730488 9.7508842 3.3083192 7.67444418 1.875 5.25 C0 2 0 2 0 0 Z " fill="#848893" transform="translate(32,46)"/>
<path d="M0 0 C0.66 0.33 1.32 0.66 2 1 C1.24069694 3.60804095 0.46821306 6.21086881 -0.3125 8.8125 C-0.52583984 9.55048828 -0.73917969 10.28847656 -0.95898438 11.04882812 C-1.17490234 11.76103516 -1.39082031 12.47324219 -1.61328125 13.20703125 C-1.90392456 14.18893433 -1.90392456 14.18893433 -2.20043945 15.19067383 C-3.1266222 17.28653348 -4.30306671 18.48363518 -6 20 C-4.38808348 13.14078075 -2.64031672 6.53792711 0 0 Z " fill="#767C8F" transform="translate(52,46)"/>
</svg>
